# xmcd
#
# Track frame offsets: 
#        150
#        15697
#        42833
#        58399
#        69912
#        91171
#        108045
#        126392
#        142222
#        159203
#        176245
#        193059
#        206377
#        227932
#        255006
#        263254
#        281728
#
# Disc length: 3939 seconds
#
# Revision: 0
# Processed by: cddbd v1.5.2PL0 Copyright (c) Steve Scherf et al.
# Submitted via: ExactAudioCopy v1.0b4
#
DISCID=ea0f6111
DTITLE=John and Sylvia Embry - Troubles
DYEAR=2013
DGENRE=Blues
TTITLE0=Wonder Why
TTITLE1=Troubles
TTITLE2=Lie To Me
TTITLE3=I'm Hurtin'
TTITLE4=I Found A New Love - Rainbow
TTITLE5=Going To New York
TTITLE6=Mustang Sally
TTITLE7=Gonna Find My Baby
TTITLE8=Early Time Blues
TTITLE9=Razor Sharp
TTITLE10=Keep Your Hands Off Her
TTITLE11=Blues This Morning
TTITLE12=After Work
TTITLE13=Worry Worry
TTITLE14=62nd St. Luau
TTITLE15=I Love The Woman
TTITLE16=Johnny's Bounce
EXTD=
EXTT0=
EXTT1=
EXTT2=
EXTT3=
EXTT4=
EXTT5=
EXTT6=
EXTT7=
EXTT8=
EXTT9=
EXTT10=
EXTT11=
EXTT12=
EXTT13=
EXTT14=
EXTT15=
EXTT16=
PLAYORDER=
